<?xml version="1.0" encoding="utf-8"?>
<!-- Generator: Adobe Illustrator 15.0.0, SVG Export Plug-In . SVG Version: 6.00 Build 0)  -->
<!DOCTYPE svg PUBLIC "-//W3C//DTD SVG 1.1//EN" "http://www.w3.org/Graphics/SVG/1.1/DTD/svg11.dtd">
<svg version="1.1" id="图层_1" xmlns="http://www.w3.org/2000/svg" xmlns:xlink="http://www.w3.org/1999/xlink" x="0px" y="0px"
	 width="48px" height="48px" viewBox="0 0 48 48" enable-background="new 0 0 48 48" xml:space="preserve">
<path fill="#FFFFFF" d="M7.927,26.082v17.9c0,1.01,0.823,1.83,1.833,1.83h9.285c1.011,0,1.833-0.82,1.833-1.83V30.857H27v13.125
	c0,1.01,0.823,1.83,1.834,1.83h9.284c1.01,0,1.832-0.82,1.832-1.83v-17.9h3.833c1.012,0,1.834-0.823,1.834-1.811
	c0.013-0.53-0.209-1.04-0.57-1.359L25.218,3.078c-0.69-0.688-1.896-0.692-2.593,0.001L2.755,22.95
	c-0.523,0.523-0.679,1.307-0.398,1.999c0.283,0.688,0.949,1.133,1.694,1.133H7.927z M23.946,4.353l19.838,19.93h-5.63v19.699
	c0,0.017-0.012,0.031-0.033,0.031l-9.318-0.031V29.057H19.08l-0.034,14.959l-9.319-0.031V24.282l-5.7-0.06L23.946,4.353z"/>
</svg>
