<?xml version="1.0" encoding="utf-8"?>
<!-- Generator: Adobe Illustrator 21.0.0, SVG Export Plug-In . SVG Version: 6.00 Build 0)  -->
<svg version="1.1" id="图层_1" xmlns="http://www.w3.org/2000/svg" xmlns:xlink="http://www.w3.org/1999/xlink" x="0px" y="0px"
	 viewBox="0 0 46 44" style="enable-background:new 0 0 46 44;" xml:space="preserve">
<style type="text/css">
	.st0{fill:#2E6BB1;}
	.st1{fill:none;stroke:#2E6BB1;stroke-width:2;stroke-linecap:round;}
	.st2{fill:none;stroke:#FFFFFF;stroke-width:3;stroke-linecap:round;}
</style>
<title>Page 1 Copy 12</title>
<desc>Created with Sketch.</desc>
<g id="Page-1">
	<g id="_x31_.1首页-copy-3" transform="translate(-659.000000, -2528.000000)">
		<g id="Page-1-Copy-12" transform="translate(660.000000, 2530.000000)">
			<path id="Fill-5" class="st0" d="M40.5,40.5c-1-11.7-10.9-16.2-10.9-16.2H14c0,0-9.9,4.5-10.9,16.2H40.5z"/>
			<path id="Stroke-7" class="st1" d="M40.5,40.5c-1-11.7-10.9-16.2-10.9-16.2H14c0,0-9.9,4.5-10.9,16.2H40.5L40.5,40.5z"/>
			<path id="Stroke-3" class="st2" d="M35,13.2c0,7.3-5.9,13.2-13.2,13.2S8.5,20.5,8.5,13.2S14.5,0,21.8,0S35,5.9,35,13.2L35,13.2z"
				/>
			<path id="Fill-1" class="st0" d="M21.8,26.4c-7.3,0-13.2-5.9-13.2-13.2S14.5,0,21.8,0S35,5.9,35,13.2S29.1,26.4,21.8,26.4z"/>
		</g>
	</g>
</g>
</svg>
