<?xml version="1.0" encoding="UTF-8"?>
<svg width="48px" height="46px" viewBox="0 0 48 46" version="1.1" xmlns="http://www.w3.org/2000/svg" xmlns:xlink="http://www.w3.org/1999/xlink">
    <!-- Generator: Sketch 42 (36781) - http://www.bohemiancoding.com/sketch -->
    <title>首页</title>
    <desc>Created with Sketch.</desc>
    <defs></defs>
    <g id="Page-1" stroke="none" stroke-width="1" fill="none" fill-rule="evenodd">
        <g id="1.1首页-copy-5" transform="translate(-109.000000, -2596.000000)">
            <g id="首页" transform="translate(111.000000, 2598.000000)">
                <path d="M22.0982929,0.390909091 L0.392935714,22.0183455" id="Fill-1" fill="#929292"></path>
                <path d="M22.0982929,0.390909091 L0.392935714,22.0183455" id="Stroke-2" stroke="#2E6BB1" stroke-width="3" stroke-linecap="round" stroke-linejoin="round"></path>
                <polyline id="Fill-4" fill="#2E6BB1" points="0.613564286 22.0186582 7.80206429 22.0186582 7.80206429 42.23804 17.0884214 42.23804 17.0884214 29.3583673 22.0981357 29.3583673 27.10785 29.3583673 27.10785 42.23804 36.3942071 42.23804 36.3942071 22.0186582 43.8034929 22.0186582 22.0981357 0.391221818"></polyline>
                <polyline id="Stroke-5" stroke="#2E6BB1" stroke-width="3" stroke-linecap="round" stroke-linejoin="round" points="0.613564286 22.0186582 7.80206429 22.0186582 7.80206429 42.23804 17.0884214 42.23804 17.0884214 29.3583673 22.0981357 29.3583673 27.10785 29.3583673 27.10785 42.23804 36.3942071 42.23804 36.3942071 22.0186582 43.8034929 22.0186582 22.0981357 0.391221818"></polyline>
            </g>
        </g>
    </g>
</svg>